# xmcd
#
# Track frame offsets: 
#        183
#        21193
#        38528
#        57903
#        71460
#        81840
#        100350
#        113735
#        126005
#        147198
#        170160
#        189563
#
# Disc length: 2732 seconds
#
# Revision: 2
# Processed by: cddbd v1.5.2PL0 Copyright (c) Steve Scherf et al.
# Submitted via: ExactAudioCopy v1.0b3
#
DISCID=a10aaa0c
DTITLE=Blodwyn Pig - Lies
DYEAR=1993
DGENRE=Blues-Rock
TTITLE0=Lies
TTITLE1=The Night Is Gone
TTITLE2=(Deep Down) Recession Blues
TTITLE3=Latin Girl
TTITLE4=Gnatz
TTITLE5=Funny Money
TTITLE6=Witness (To A Crime Of Love)
TTITLE7=Aby's Lean
TTITLE8=The Victim
TTITLE9=Love Won't Let You Down
TTITLE10=Dead Man's Hill
TTITLE11=Maggie Rose
EXTD=
EXTT0=
EXTT1=
EXTT2=
EXTT3=
EXTT4=
EXTT5=
EXTT6=
EXTT7=
EXTT8=
EXTT9=
EXTT10=
EXTT11=
PLAYORDER=
